<svg width="80" height="50" viewBox="0 0 512 512" xmlns="http://www.w3.org/2000/svg">
  <rect width="512" height="512" fill="#ffffff" rx="40" />
  <circle cx="256" cy="256" r="140" fill="#f7931a" />
  <path d="M280 182v-18h-30v18h-20v-18h-30v18h-20v34h14c7 0 10 4 10 9v123c0 4-3 8-10 8h-14v34h30v18h30v-18h30v18h30v-18h20c33 0 60-18 60-50 0-24-14-40-35-45v-1c15-5 27-18 27-38 0-29-22-46-52-46h-20zm-30 34h30c14 0 25 5 25 18 0 14-11 18-25 18h-30v-36zm0 72h35c15 0 28 5 28 20 0 14-13 20-28 20h-35v-40z" fill="white" />
</svg> 